<svg width="76" height="12" viewBox="0 0 76 12" fill="none" xmlns="http://www.w3.org/2000/svg">
<path d="M0.320224 0.0909088H3.16468L6.16895 7.42045H6.29679L9.30105 0.0909088H12.1455V11H9.90829V3.8995H9.81774L6.99458 10.9467H5.47115L2.64799 3.87287H2.55744V11H0.320224V0.0909088ZM16.3363 11.1545C15.8143 11.1545 15.3491 11.0639 14.9407 10.8828C14.5323 10.6982 14.2092 10.4265 13.9712 10.0678C13.7369 9.70561 13.6197 9.25462 13.6197 8.71484C13.6197 8.2603 13.7031 7.87855 13.87 7.5696C14.0369 7.26065 14.2642 7.01207 14.5518 6.82386C14.8395 6.63565 15.1662 6.49361 15.532 6.39773C15.9013 6.30185 16.2884 6.23438 16.6932 6.19531C17.169 6.1456 17.5526 6.09943 17.8438 6.05682C18.1349 6.01065 18.3462 5.94318 18.4776 5.8544C18.609 5.76562 18.6747 5.63423 18.6747 5.46023V5.42827C18.6747 5.09091 18.5682 4.8299 18.3551 4.64524C18.1456 4.46058 17.8473 4.36825 17.4602 4.36825C17.0518 4.36825 16.7269 4.45881 16.4854 4.63991C16.244 4.81747 16.0842 5.04119 16.006 5.31108L13.9073 5.14062C14.0138 4.64347 14.2234 4.21378 14.5359 3.85156C14.8484 3.4858 15.2514 3.20526 15.745 3.00994C16.2422 2.81108 16.8175 2.71165 17.4709 2.71165C17.9254 2.71165 18.3604 2.76491 18.7759 2.87145C19.195 2.97798 19.5661 3.14311 19.8892 3.36683C20.2159 3.59055 20.4734 3.8782 20.6616 4.22976C20.8498 4.57777 20.9439 4.99503 20.9439 5.48153V11H18.7919V9.86541H18.728C18.5966 10.1211 18.4208 10.3466 18.2006 10.5419C17.9805 10.7337 17.7159 10.8846 17.407 10.9947C17.098 11.1012 16.7411 11.1545 16.3363 11.1545ZM16.9862 9.58842C17.32 9.58842 17.6147 9.52273 17.8704 9.39134C18.1261 9.25639 18.3267 9.07528 18.4723 8.84801C18.6179 8.62074 18.6907 8.36328 18.6907 8.07564V7.20739C18.6197 7.25355 18.522 7.29616 18.3977 7.33523C18.277 7.37074 18.1403 7.40447 17.9876 7.43643C17.8349 7.46484 17.6822 7.49148 17.5295 7.51634C17.3768 7.53764 17.2383 7.55717 17.114 7.57493C16.8477 7.61399 16.6151 7.67614 16.4162 7.76136C16.2173 7.84659 16.0629 7.962 15.9528 8.1076C15.8427 8.24964 15.7876 8.4272 15.7876 8.64027C15.7876 8.94922 15.8995 9.18537 16.1232 9.34872C16.3505 9.50852 16.6381 9.58842 16.9862 9.58842ZM25.7193 11.1332C25.0978 11.1332 24.535 10.9734 24.0307 10.6538C23.53 10.3306 23.1323 9.85653 22.8375 9.23153C22.5463 8.60298 22.4007 7.83239 22.4007 6.91974C22.4007 5.98224 22.5517 5.20277 22.8535 4.58132C23.1554 3.95632 23.5566 3.48935 24.0574 3.1804C24.5616 2.8679 25.1138 2.71165 25.714 2.71165C26.1721 2.71165 26.5538 2.78977 26.8592 2.94602C27.1681 3.09872 27.4167 3.29048 27.6049 3.52131C27.7967 3.74858 27.9423 3.9723 28.0417 4.19247H28.111V0.0909088H30.3748V11H28.1376V9.68963H28.0417C27.9352 9.9169 27.7843 10.1424 27.589 10.3661C27.3972 10.5863 27.1468 10.7692 26.8379 10.9148C26.5325 11.0604 26.1596 11.1332 25.7193 11.1332ZM26.4384 9.32741C26.8042 9.32741 27.1131 9.22798 27.3652 9.02912C27.6209 8.8267 27.8162 8.54439 27.9512 8.18217C28.0897 7.81996 28.1589 7.3956 28.1589 6.90909C28.1589 6.42259 28.0914 6 27.9565 5.64133C27.8216 5.28267 27.6262 5.00568 27.3706 4.81037C27.1149 4.61506 26.8042 4.5174 26.4384 4.5174C26.0655 4.5174 25.7512 4.61861 25.4956 4.82102C25.2399 5.02344 25.0463 5.30398 24.915 5.66264C24.7836 6.02131 24.7179 6.43679 24.7179 6.90909C24.7179 7.38494 24.7836 7.80575 24.915 8.17152C25.0499 8.53374 25.2434 8.81783 25.4956 9.02379C25.7512 9.22621 26.0655 9.32741 26.4384 9.32741Z" fill="#292C27"/>
<path d="M36.5924 2.81818V4.52273H31.6652V2.81818H36.5924ZM32.7838 0.857954H35.053V8.4858C35.053 8.69531 35.085 8.85866 35.1489 8.97585C35.2128 9.08949 35.3016 9.16939 35.4152 9.21555C35.5324 9.26172 35.6673 9.2848 35.82 9.2848C35.9266 9.2848 36.0331 9.27592 36.1396 9.25817C36.2462 9.23686 36.3279 9.22088 36.3847 9.21023L36.7416 10.8988C36.6279 10.9343 36.4681 10.9751 36.2622 11.0213C36.0562 11.071 35.8058 11.1012 35.5111 11.1119C34.9642 11.1332 34.4848 11.0604 34.0729 10.8935C33.6645 10.7266 33.3467 10.4673 33.1194 10.1158C32.8921 9.7642 32.7803 9.32031 32.7838 8.78409V0.857954ZM38.0706 11V2.81818H40.2705V4.24574H40.3557C40.5049 3.73793 40.7552 3.3544 41.1068 3.09517C41.4584 2.83239 41.8632 2.70099 42.3213 2.70099C42.4349 2.70099 42.5574 2.7081 42.6888 2.7223C42.8202 2.73651 42.9356 2.75604 43.0351 2.78089V4.79439C42.9285 4.76243 42.7812 4.73402 42.593 4.70916C42.4047 4.6843 42.2325 4.67188 42.0763 4.67188C41.7425 4.67188 41.4442 4.74467 41.1814 4.89027C40.9221 5.03232 40.7162 5.23118 40.5635 5.48686C40.4143 5.74254 40.3398 6.03729 40.3398 6.37109V11H38.0706ZM46.307 11.1545C45.785 11.1545 45.3198 11.0639 44.9114 10.8828C44.503 10.6982 44.1799 10.4265 43.9419 10.0678C43.7076 9.70561 43.5904 9.25462 43.5904 8.71484C43.5904 8.2603 43.6738 7.87855 43.8407 7.5696C44.0076 7.26065 44.2349 7.01207 44.5225 6.82386C44.8102 6.63565 45.1369 6.49361 45.5027 6.39773C45.872 6.30185 46.2591 6.23438 46.6639 6.19531C47.1397 6.1456 47.5233 6.09943 47.8145 6.05682C48.1056 6.01065 48.3169 5.94318 48.4483 5.8544C48.5797 5.76562 48.6454 5.63423 48.6454 5.46023V5.42827C48.6454 5.09091 48.5389 4.8299 48.3258 4.64524C48.1163 4.46058 47.818 4.36825 47.4309 4.36825C47.0225 4.36825 46.6976 4.45881 46.4561 4.63991C46.2147 4.81747 46.0549 5.04119 45.9767 5.31108L43.878 5.14062C43.9846 4.64347 44.1941 4.21378 44.5066 3.85156C44.8191 3.4858 45.2221 3.20526 45.7157 3.00994C46.2129 2.81108 46.7882 2.71165 47.4416 2.71165C47.8961 2.71165 48.3311 2.76491 48.7466 2.87145C49.1657 2.97798 49.5368 3.14311 49.8599 3.36683C50.1866 3.59055 50.4441 3.8782 50.6323 4.22976C50.8205 4.57777 50.9146 4.99503 50.9146 5.48153V11H48.7626V9.86541H48.6987C48.5673 10.1211 48.3915 10.3466 48.1713 10.5419C47.9512 10.7337 47.6866 10.8846 47.3777 10.9947C47.0687 11.1012 46.7118 11.1545 46.307 11.1545ZM46.9569 9.58842C47.2907 9.58842 47.5854 9.52273 47.8411 9.39134C48.0968 9.25639 48.2974 9.07528 48.443 8.84801C48.5886 8.62074 48.6614 8.36328 48.6614 8.07564V7.20739C48.5904 7.25355 48.4927 7.29616 48.3684 7.33523C48.2477 7.37074 48.111 7.40447 47.9583 7.43643C47.8056 7.46484 47.6529 7.49148 47.5002 7.51634C47.3475 7.53764 47.209 7.55717 47.0847 7.57493C46.8184 7.61399 46.5858 7.67614 46.3869 7.76136C46.188 7.84659 46.0336 7.962 45.9235 8.1076C45.8134 8.24964 45.7583 8.4272 45.7583 8.64027C45.7583 8.94922 45.8702 9.18537 46.0939 9.34872C46.3212 9.50852 46.6088 9.58842 46.9569 9.58842ZM60.0099 2.81818L57.1495 11H54.5927L51.7322 2.81818H54.1293L55.8285 8.67223H55.9137L57.6076 2.81818H60.0099ZM64.6362 11.1598C63.7946 11.1598 63.0701 10.9893 62.4629 10.6484C61.8592 10.304 61.394 9.81747 61.0673 9.18892C60.7406 8.55682 60.5772 7.8093 60.5772 6.94638C60.5772 6.10476 60.7406 5.36612 61.0673 4.73047C61.394 4.09482 61.8539 3.59943 62.4469 3.24432C63.0435 2.8892 63.7431 2.71165 64.5456 2.71165C65.0854 2.71165 65.5879 2.79865 66.0531 2.97266C66.5218 3.14311 66.9302 3.40057 67.2782 3.74503C67.6298 4.08949 67.9032 4.52273 68.0985 5.04474C68.2939 5.56321 68.3915 6.17045 68.3915 6.86648V7.4897H61.4828V6.08345H66.2555C66.2555 5.75675 66.1845 5.46733 66.0424 5.2152C65.9004 4.96307 65.7033 4.76598 65.4512 4.62393C65.2026 4.47834 64.9132 4.40554 64.5829 4.40554C64.2385 4.40554 63.9331 4.48544 63.6667 4.64524C63.4039 4.80149 63.198 5.01278 63.0488 5.27912C62.8997 5.5419 62.8233 5.83487 62.8198 6.15803V7.49503C62.8198 7.89986 62.8944 8.24964 63.0435 8.54439C63.1962 8.83913 63.411 9.06641 63.688 9.22621C63.965 9.38601 64.2935 9.46591 64.6735 9.46591C64.9256 9.46591 65.1564 9.4304 65.3659 9.35938C65.5755 9.28835 65.7548 9.18182 65.9039 9.03977C66.0531 8.89773 66.1667 8.72372 66.2449 8.51776L68.3436 8.65625C68.237 9.16051 68.0186 9.60085 67.6884 9.97727C67.3617 10.3501 66.9391 10.6413 66.4206 10.8509C65.9057 11.0568 65.3109 11.1598 64.6362 11.1598ZM72.1415 0.0909088V11H69.8723V0.0909088H72.1415Z" fill="#D9D9D9"/>
<path d="M36.5924 2.81818V4.52273H31.6652V2.81818H36.5924ZM32.7838 0.857954H35.053V8.4858C35.053 8.69531 35.085 8.85866 35.1489 8.97585C35.2128 9.08949 35.3016 9.16939 35.4152 9.21555C35.5324 9.26172 35.6673 9.2848 35.82 9.2848C35.9266 9.2848 36.0331 9.27592 36.1396 9.25817C36.2462 9.23686 36.3279 9.22088 36.3847 9.21023L36.7416 10.8988C36.6279 10.9343 36.4681 10.9751 36.2622 11.0213C36.0562 11.071 35.8058 11.1012 35.5111 11.1119C34.9642 11.1332 34.4848 11.0604 34.0729 10.8935C33.6645 10.7266 33.3467 10.4673 33.1194 10.1158C32.8921 9.7642 32.7803 9.32031 32.7838 8.78409V0.857954ZM38.0706 11V2.81818H40.2705V4.24574H40.3557C40.5049 3.73793 40.7552 3.3544 41.1068 3.09517C41.4584 2.83239 41.8632 2.70099 42.3213 2.70099C42.4349 2.70099 42.5574 2.7081 42.6888 2.7223C42.8202 2.73651 42.9356 2.75604 43.0351 2.78089V4.79439C42.9285 4.76243 42.7812 4.73402 42.593 4.70916C42.4047 4.6843 42.2325 4.67188 42.0763 4.67188C41.7425 4.67188 41.4442 4.74467 41.1814 4.89027C40.9221 5.03232 40.7162 5.23118 40.5635 5.48686C40.4143 5.74254 40.3398 6.03729 40.3398 6.37109V11H38.0706ZM46.307 11.1545C45.785 11.1545 45.3198 11.0639 44.9114 10.8828C44.503 10.6982 44.1799 10.4265 43.9419 10.0678C43.7076 9.70561 43.5904 9.25462 43.5904 8.71484C43.5904 8.2603 43.6738 7.87855 43.8407 7.5696C44.0076 7.26065 44.2349 7.01207 44.5225 6.82386C44.8102 6.63565 45.1369 6.49361 45.5027 6.39773C45.872 6.30185 46.2591 6.23438 46.6639 6.19531C47.1397 6.1456 47.5233 6.09943 47.8145 6.05682C48.1056 6.01065 48.3169 5.94318 48.4483 5.8544C48.5797 5.76562 48.6454 5.63423 48.6454 5.46023V5.42827C48.6454 5.09091 48.5389 4.8299 48.3258 4.64524C48.1163 4.46058 47.818 4.36825 47.4309 4.36825C47.0225 4.36825 46.6976 4.45881 46.4561 4.63991C46.2147 4.81747 46.0549 5.04119 45.9767 5.31108L43.878 5.14062C43.9846 4.64347 44.1941 4.21378 44.5066 3.85156C44.8191 3.4858 45.2221 3.20526 45.7157 3.00994C46.2129 2.81108 46.7882 2.71165 47.4416 2.71165C47.8961 2.71165 48.3311 2.76491 48.7466 2.87145C49.1657 2.97798 49.5368 3.14311 49.8599 3.36683C50.1866 3.59055 50.4441 3.8782 50.6323 4.22976C50.8205 4.57777 50.9146 4.99503 50.9146 5.48153V11H48.7626V9.86541H48.6987C48.5673 10.1211 48.3915 10.3466 48.1713 10.5419C47.9512 10.7337 47.6866 10.8846 47.3777 10.9947C47.0687 11.1012 46.7118 11.1545 46.307 11.1545ZM46.9569 9.58842C47.2907 9.58842 47.5854 9.52273 47.8411 9.39134C48.0968 9.25639 48.2974 9.07528 48.443 8.84801C48.5886 8.62074 48.6614 8.36328 48.6614 8.07564V7.20739C48.5904 7.25355 48.4927 7.29616 48.3684 7.33523C48.2477 7.37074 48.111 7.40447 47.9583 7.43643C47.8056 7.46484 47.6529 7.49148 47.5002 7.51634C47.3475 7.53764 47.209 7.55717 47.0847 7.57493C46.8184 7.61399 46.5858 7.67614 46.3869 7.76136C46.188 7.84659 46.0336 7.962 45.9235 8.1076C45.8134 8.24964 45.7583 8.4272 45.7583 8.64027C45.7583 8.94922 45.8702 9.18537 46.0939 9.34872C46.3212 9.50852 46.6088 9.58842 46.9569 9.58842ZM60.0099 2.81818L57.1495 11H54.5927L51.7322 2.81818H54.1293L55.8285 8.67223H55.9137L57.6076 2.81818H60.0099ZM64.6362 11.1598C63.7946 11.1598 63.0701 10.9893 62.4629 10.6484C61.8592 10.304 61.394 9.81747 61.0673 9.18892C60.7406 8.55682 60.5772 7.8093 60.5772 6.94638C60.5772 6.10476 60.7406 5.36612 61.0673 4.73047C61.394 4.09482 61.8539 3.59943 62.4469 3.24432C63.0435 2.8892 63.7431 2.71165 64.5456 2.71165C65.0854 2.71165 65.5879 2.79865 66.0531 2.97266C66.5218 3.14311 66.9302 3.40057 67.2782 3.74503C67.6298 4.08949 67.9032 4.52273 68.0985 5.04474C68.2939 5.56321 68.3915 6.17045 68.3915 6.86648V7.4897H61.4828V6.08345H66.2555C66.2555 5.75675 66.1845 5.46733 66.0424 5.2152C65.9004 4.96307 65.7033 4.76598 65.4512 4.62393C65.2026 4.47834 64.9132 4.40554 64.5829 4.40554C64.2385 4.40554 63.9331 4.48544 63.6667 4.64524C63.4039 4.80149 63.198 5.01278 63.0488 5.27912C62.8997 5.5419 62.8233 5.83487 62.8198 6.15803V7.49503C62.8198 7.89986 62.8944 8.24964 63.0435 8.54439C63.1962 8.83913 63.411 9.06641 63.688 9.22621C63.965 9.38601 64.2935 9.46591 64.6735 9.46591C64.9256 9.46591 65.1564 9.4304 65.3659 9.35938C65.5755 9.28835 65.7548 9.18182 65.9039 9.03977C66.0531 8.89773 66.1667 8.72372 66.2449 8.51776L68.3436 8.65625C68.237 9.16051 68.0186 9.60085 67.6884 9.97727C67.3617 10.3501 66.9391 10.6413 66.4206 10.8509C65.9057 11.0568 65.3109 11.1598 64.6362 11.1598ZM72.1415 0.0909088V11H69.8723V0.0909088H72.1415Z" fill="#30AF5B"/>
<path d="M74.8392 11.1108C74.558 11.1108 74.3165 11.0114 74.1148 10.8125C73.9159 10.6108 73.8165 10.3693 73.8165 10.0881C73.8165 9.80966 73.9159 9.57102 74.1148 9.37216C74.3165 9.1733 74.558 9.07386 74.8392 9.07386C75.1119 9.07386 75.3506 9.1733 75.5551 9.37216C75.7597 9.57102 75.8619 9.80966 75.8619 10.0881C75.8619 10.2756 75.8137 10.4474 75.7171 10.6037C75.6233 10.7571 75.4997 10.8807 75.3463 10.9744C75.1929 11.0653 75.0239 11.1108 74.8392 11.1108Z" fill="white"/>
<path d="M74.8392 11.1108C74.558 11.1108 74.3165 11.0114 74.1148 10.8125C73.9159 10.6108 73.8165 10.3693 73.8165 10.0881C73.8165 9.80966 73.9159 9.57102 74.1148 9.37216C74.3165 9.1733 74.558 9.07386 74.8392 9.07386C75.1119 9.07386 75.3506 9.1733 75.5551 9.37216C75.7597 9.57102 75.8619 9.80966 75.8619 10.0881C75.8619 10.2756 75.8137 10.4474 75.7171 10.6037C75.6233 10.7571 75.4997 10.8807 75.3463 10.9744C75.1929 11.0653 75.0239 11.1108 74.8392 11.1108Z" fill="#30AF5B"/>
</svg>
